<svg xmlns="http://www.w3.org/2000/svg" viewBox="0 0 100 100" width="100" height="100">
  <!-- Captain's Hat -->
  <ellipse cx="50" cy="25" rx="40" ry="12" fill="#1a1a2e"/>
  <rect x="15" y="15" width="70" height="15" rx="3" fill="#2d2d44"/>
  <rect x="10" y="25" width="80" height="8" rx="2" fill="#3d3d5c"/>
  <!-- Hat Band -->
  <rect x="10" y="28" width="80" height="4" fill="#6c5ce7"/>
  <!-- Lobster Body -->
  <ellipse cx="50" cy="55" rx="25" ry="20" fill="#e17055"/>
  <!-- Lobster Tail -->
  <path d="M50 75 L45 90 L50 85 L55 90 Z" fill="#e17055"/>
  <!-- Lobster Claws -->
  <ellipse cx="22" cy="50" rx="12" ry="8" fill="#e17055"/>
  <ellipse cx="78" cy="50" rx="12" ry="8" fill="#e17055"/>
  <!-- Claw Pincers -->
  <path d="M10 45 Q5 40 8 35 Q12 38 10 45" fill="#d63031"/>
  <path d="M10 55 Q5 60 8 65 Q12 62 10 55" fill="#d63031"/>
  <path d="M90 45 Q95 40 92 35 Q88 38 90 45" fill="#d63031"/>
  <path d="M90 55 Q95 60 92 65 Q88 62 90 55" fill="#d63031"/>
  <!-- Lobster Eyes -->
  <circle cx="42" cy="45" r="4" fill="#2d2d44"/>
  <circle cx="58" cy="45" r="4" fill="#2d2d44"/>
  <circle cx="43" cy="44" r="1.5" fill="white"/>
  <circle cx="59" cy="44" r="1.5" fill="white"/>
  <!-- Antennae -->
  <path d="M45 40 Q40 25 35 20" stroke="#e17055" stroke-width="2" fill="none"/>
  <path d="M55 40 Q60 25 65 20" stroke="#e17055" stroke-width="2" fill="none"/>
</svg>
